<svg xmlns="http://www.w3.org/2000/svg" viewBox="0 0 64 64" role="img" aria-labelledby="title">
  <title>Chess.com</title>
  <rect width="64" height="64" rx="14" fill="#302e2b"/>
  <path fill="#81b64c" d="M40.2 48H23.8c-2.4 0-4.1-2.2-3.4-4.5l2.4-8.1c.5-1.8 2.1-3 4-3h8.4c1.9 0 3.5 1.2 4 3l2.4 8.1c.7 2.3-1 4.5-3.4 4.5Z"/>
  <path fill="#baca44" d="M32 8c6.5 0 11.8 5.1 11.8 11.4 0 4.2-2.3 7.8-5.7 9.8 1.5 1.2 2.5 2.9 2.5 4.9 0 3.6-3.4 6.5-7.6 6.5h-2c-4.2 0-7.6-2.9-7.6-6.5 0-2 .9-3.7 2.5-4.9-3.4-2-5.7-5.6-5.7-9.8C20.2 13.1 25.5 8 32 8Z"/>
  <circle cx="32" cy="19.6" r="4.5" fill="#302e2b"/>
  <path fill="#302e2b" d="M28.7 27.3h6.6v12.9h-6.6z"/>
</svg>
