<svg xmlns="http://www.w3.org/2000/svg" viewBox="0 0 64 64" role="img" aria-labelledby="title">
  <title>Spotify</title>
  <rect width="64" height="64" rx="14" fill="#121212"/>
  <circle cx="32" cy="32" r="22" fill="#1DB954"/>
  <path fill="#121212" d="M43.9 42.1c-.4.7-1.3.9-2 .5-5.5-3.3-12.4-4.1-20.6-2.2-.8.2-1.6-.3-1.8-1.1-.2-.8.3-1.6 1.1-1.8 8.9-2 16.6-1.1 22.9 2.7.7.4.9 1.3.4 1.9Zm3.2-7.2c-.5.8-1.6 1.1-2.4.6-6.3-3.9-15.9-5-23.3-2.7-.9.3-1.9-.2-2.2-1.1-.3-.9.2-1.9 1.1-2.2 8.5-2.6 19-1.4 26.2 3.1.8.5 1.1 1.6.6 2.4Zm.3-7.5c-7.5-4.5-20-4.9-27.2-2.7-1.1.3-2.3-.3-2.6-1.4-.3-1.1.3-2.3 1.4-2.6 8.3-2.5 21.9-2 30.6 3.1 1 .6 1.3 1.9.7 2.9-.6 1-1.9 1.3-2.9.7Z"/>
</svg>
